
        <svg xmlns="http://www.w3.org/2000/svg" xmlns:xlink="http://www.w3.org/1999/xlink" version="1.1" width="3171.4285714285716" 
        height="1523.3509692222742" viewBox="0 0 3171.4285714285716 1523.3509692222742">
			
			<g transform="scale(8.571428571428571) translate(10, 10)">
				<defs id="SvgjsDefs2252"><linearGradient id="SvgjsLinearGradient2259"><stop id="SvgjsStop2260" stop-color="#8f5e25" offset="0"></stop><stop id="SvgjsStop2261" stop-color="#fbf4a1" offset="0.5"></stop><stop id="SvgjsStop2262" stop-color="#8f5e25" offset="1"></stop></linearGradient><linearGradient id="SvgjsLinearGradient2263"><stop id="SvgjsStop2264" stop-color="#8f5e25" offset="0"></stop><stop id="SvgjsStop2265" stop-color="#fbf4a1" offset="0.5"></stop><stop id="SvgjsStop2266" stop-color="#8f5e25" offset="1"></stop></linearGradient><linearGradient id="SvgjsLinearGradient2267"><stop id="SvgjsStop2268" stop-color="#8f5e25" offset="0"></stop><stop id="SvgjsStop2269" stop-color="#fbf4a1" offset="0.5"></stop><stop id="SvgjsStop2270" stop-color="#8f5e25" offset="1"></stop></linearGradient></defs><g id="SvgjsG2253" featureKey="symbolFeature-0" transform="matrix(1.0966794331469332,0,0,1.0966794331469332,119.64758401295208,-13.029647868299708)" fill="url(#SvgjsLinearGradient2259)"><path xmlns="http://www.w3.org/2000/svg" d="M82.194,11.881c-2.391,0-4.336,1.945-4.336,4.336c0,1.315,0.601,2.48,1.528,3.276l-6.598,9.286l-57.72,0.002l-1.069,1  v57.924l1.138,1.196h65.469l0.862-1.196v-54.8l-0.862-0.803h-62l-1.138,0.803v51.6l1.138,1.196h58.8l0.862-1.196v-48l-0.862-0.803  h-55.2l-1.137,0.803v44.399l1.137,1.197h51.601l0.862-1.197V39.636l-0.862-0.803H25.75l-1.137,0.803v38.069l1.137,1.196h9.544  l0.726-0.386l9.44-10.014h0.481h20.977h1.352v-1.791v-1.01v-1.686V47.262v-0.096v-1.064h-1.352H45.94h-1.672v1.064v0.096v16.753  v1.686v1.01v0.188l-9.404,10.002h-8.251V40.833h46.056v39.268h-49.6v-42.4h53.2v46h-56.8v-49.6h60v52.8H16v-56.12l57.27-0.002  l0.883-0.421l7.036-9.935c0.324,0.078,0.658,0.13,1.006,0.13c2.392,0,4.337-1.945,4.337-4.336S84.586,11.881,82.194,11.881z   M45.869,47.302h20.8v16.8h-20.8V47.302z M45.94,65.701h20.729v1.2h-20.8v-1.2H45.94z M82.194,19.184  c-1.638,0-2.966-1.328-2.966-2.967c0-1.638,1.328-2.967,2.966-2.967c1.64,0,2.968,1.329,2.968,2.967  C85.162,17.855,83.834,19.184,82.194,19.184z"></path></g><g id="SvgjsG2254" featureKey="nameFeature-0" transform="matrix(0.8617967675106947,0,0,0.8617967675106947,-1.2503653814507203,94.65874013564012)" fill="url(#SvgjsLinearGradient2263)"><path d="M21.687 39.3764 c0.18641 0 0.31508 0.12961 0.31508 0.30762 c0 0.18641 -0.12961 0.31602 -0.31602 0.31602 l-7.12 0 c-0.18602 0 -0.31562 -0.12961 -0.31562 -0.31602 c0 -0.17801 0.12961 -0.30762 0.31602 -0.30762 l1.036 0 c0.578 0 0.96404 -0.4496 0.96404 -0.96404 l0 -10.392 c0 -4.0236 -1.9984 -5.192 -3.6784 -5.192 c-3.5684 0 -6.0016 3.8096 -6.0016 8.2676 l0 7.316 c0 0.5144 0.38641 0.96404 0.9644 0.96404 l1.036 0 c0.18641 0 0.31602 0.12961 0.31602 0.30762 c0 0.18641 -0.12961 0.31602 -0.31602 0.31602 l-7.12 0 c-0.18641 0 -0.31602 -0.12961 -0.31602 -0.31602 c0 -0.17801 0.12961 -0.30762 0.31602 -0.30762 l1.036 0 c0.578 0 0.96404 -0.4496 0.96404 -0.96404 l0 -25.985 c0 -0.5144 -0.38602 -0.96404 -0.96404 -0.96404 l-1.036 0 c-0.18641 0 -0.31602 -0.12961 -0.31602 -0.30762 c0 -0.18641 0.12961 -0.31602 0.31602 -0.31602 l5.12 0 l0 16.62 c1.0316 -3.3048 3.5408 -5.7412 7.11 -5.7412 c3.44 0 5.6896 2.0164 5.6896 5.5724 l0 11.121 c0 0.5144 0.38641 0.96404 0.9644 0.96404 l1.036 0 z M42.729 30.5364 c0 0.31039 -0.14809 0.42248 -0.51488 0.42248 l-12.843 0 c0 4.5504 1.8552 8.378 6.2512 8.378 c3.5364 0 5.4576 -2.5888 6.1472 -4.4948 c0.081212 -0.21121 0.19442 -0.26762 0.31562 -0.26762 c0.22641 0 0.3148 0.16961 0.2832 0.36281 c-0.31719 1.2304 -2.2412 5.32 -7.19 5.32 c-4.894 0 -9.1656 -2.8884 -9.1656 -9.3296 c0 -5.8964 3.5808 -9.2728 8.5836 -9.2728 c4.7684 0 8.1324 3.1008 8.1324 8.8816 z M29.3794 30.3684 l10.096 -0.00035156 c-0.033203 -5.4964 -1.9792 -8.084 -4.8812 -8.084 c-2.914 0 -5.0704 2.8156 -5.2144 8.0844 z M54.720800000000004 39.3764 c0.18641 0 0.31558 0.12969 0.31558 0.3077 c0 0.18641 -0.12961 0.31602 -0.31602 0.31602 l-7.12 0 c-0.18641 0 -0.31602 -0.12961 -0.31602 -0.31602 c0 -0.17801 0.12961 -0.30762 0.31602 -0.30762 l1.036 0 c0.578 0 0.96404 -0.4496 0.96404 -0.96404 l0 -25.985 c0 -0.5144 -0.38602 -0.96404 -0.96404 -0.96404 l-1.036 0 c-0.18641 0 -0.31602 -0.12961 -0.31602 -0.30762 c0 -0.18641 0.12961 -0.31602 0.31602 -0.31602 l5.12 0 l0 27.572 c0 0.5144 0.38641 0.96404 0.9644 0.96404 l1.036 0 z M65.8778 39.3764 c0.18641 0 0.31558 0.12969 0.31558 0.3077 c0 0.18641 -0.12961 0.31602 -0.31602 0.31602 l-7.12 0 c-0.18641 0 -0.31602 -0.12961 -0.31602 -0.31602 c0 -0.17801 0.12961 -0.30762 0.31602 -0.30762 l1.036 0 c0.578 0 0.96404 -0.4496 0.96404 -0.96404 l0 -25.985 c0 -0.5144 -0.38602 -0.96404 -0.96404 -0.96404 l-1.036 0 c-0.18641 0 -0.31602 -0.12961 -0.31602 -0.30762 c0 -0.18641 0.12961 -0.31602 0.31602 -0.31602 l5.12 0 l0 27.572 c0 0.5144 0.38641 0.96404 0.9644 0.96404 l1.036 0 z M78.97 40.25801 c-4.9268 0 -8.7656 -3.326 -8.7656 -9.33 c0 -5.7888 3.7312 -9.2728 8.7656 -9.2728 c4.8524 0 8.7572 3.1532 8.7572 9.2732 c0 6.004 -3.7808 9.3296 -8.7572 9.3296 z M78.948 39.62719 c3.1116 -0.031602 5.4456 -3.0332 5.4456 -8.6824 c0 -5.7504 -2.3684 -8.6512 -5.4236 -8.6512 c-3.0388 0 -5.432 2.9008 -5.432 8.6512 c0 5.4288 2.2564 8.6508 5.41 8.6824 z M95.30499999999999 36.8304 c1.1088 0 2.046 0.81996 2.046 2.5012 c0 3.08 -1.5384 5.6804 -3.7104 7.6288 c-0.29039 0.24762 -0.6516 -0.088788 -0.32121 -0.41916 c1.938 -1.942 2.8668 -4.2192 2.8992 -6.4048 c-0.24359 0.17 -0.564 0.29 -0.972 0.29 c-0.862 0 -1.7612 -0.7312 -1.7612 -1.7848 c0 -1.0152 0.8208 -1.8112 1.8196 -1.8112 z M138.087 21.96 c0.18602 0 0.31644 0.12883 0.31644 0.31524 c0 0.17801 -0.12961 0.30762 -0.31562 0.30762 l-1.044 0 c-0.76 0 -1.2084 0.2732 -1.4084 0.8732 l-5.5364 16.544 l-0.75602 0 l-4.8028 -13.411 l-4.1408 13.411 l-0.75602 0 l-6.2384 -16.461 c-0.2816 -0.7312 -0.8028 -0.956 -1.3616 -0.956 l-0.96398 0 c-0.18602 0 -0.31562 -0.12961 -0.31562 -0.31562 c0 -0.17801 0.12961 -0.30762 0.31562 -0.30762 l8.014 0 c0.18602 0 0.31562 0.12961 0.31562 0.31602 c0 0.17801 -0.12961 0.30762 -0.31602 0.30762 l-1.6648 0 c-0.5356 0 -0.8288 0.27801 -0.8288 0.6368 c0 0.094804 0.0064064 0.19121 0.050392 0.31883 l4.5172 11.988 l4.2384 -13.568 l0.64 0 l4.884 13.602 l4 -12.022 c0.046796 -0.1348 0.054412 -0.2348 0.054412 -0.33121 c0 -0.36558 -0.2732 -0.6248 -0.7368 -0.6248 l-1.778 0 c-0.18641 0 -0.31602 -0.12961 -0.31602 -0.31562 c0 -0.17801 0.12961 -0.30762 0.31602 -0.30762 l5.618 0 z M158.148 30.5364 c0 0.31039 -0.14809 0.42248 -0.51488 0.42248 l-12.843 0 c0 4.5504 1.8552 8.378 6.2512 8.378 c3.5364 0 5.4576 -2.5888 6.1472 -4.4948 c0.081212 -0.21121 0.19442 -0.26762 0.31562 -0.26762 c0.22641 0 0.3148 0.16961 0.2832 0.36281 c-0.31719 1.2304 -2.2412 5.32 -7.19 5.32 c-4.894 0 -9.1656 -2.8884 -9.1656 -9.3296 c0 -5.8964 3.5808 -9.2728 8.5836 -9.2728 c4.7684 0 8.1324 3.1008 8.1324 8.8816 z M144.79840000000002 30.3684 l10.096 -0.00035156 c-0.033203 -5.4964 -1.9792 -8.084 -4.8812 -8.084 c-2.914 0 -5.0704 2.8156 -5.2144 8.0844 z M193.086 39.3764 c0.18641 0 0.31594 0.12953 0.31594 0.30754 c0 0.18641 -0.12961 0.31602 -0.31602 0.31602 l-5.12 0 l0 -5.3836 c-1.1092 3.3544 -3.5132 5.7048 -6.7616 5.7048 c-4.0884 0 -7.8176 -2.9176 -7.8176 -9.3548 c0 -6.084 3.7252 -9.3112 7.818 -9.3112 c3.306 0 5.6852 2.44 6.7612 5.7284 l0 -5.4236 l3.12 0 l0 16.452 c0 0.5144 0.38602 0.96404 0.96404 0.96404 l1.036 0 z M182.092 39.40112 c3.0704 0 5.8992 -3.8168 5.8992 -8.3932 c0 -4.6112 -2.862 -8.4332 -5.8992 -8.4332 c-3.1132 0 -5.3548 2.5188 -5.3548 8.4016 c0 5.906 2.2416 8.4248 5.3548 8.4248 z M208.18900000000002 21.719 c2.6564 0 3.6773 1.8025 3.6773 3.5985 c0 1.3684 -0.6868 2.618 -2.0964 2.618 c-0.9104 0 -1.658 -0.5904 -1.658 -1.618 c0 -1.1836 1.3008 -1.6636 1.3008 -2.5312 c0 -0.7116 -0.6332 -1.208 -1.7284 -1.208 c-2.7628 0 -5.4304 3.6868 -5.4304 9.6344 l0 6.2 c0 0.5144 0.38641 0.96404 0.9644 0.96404 l2.2056 0 c0.18602 0 0.31562 0.12961 0.31562 0.31602 c0 0.17801 -0.12961 0.30762 -0.31602 0.30762 l-8.2896 0 c-0.18641 0 -0.31602 -0.12961 -0.31602 -0.31602 c0 -0.17801 0.12961 -0.30762 0.31602 -0.30762 l1.036 0 c0.578 0 0.96404 -0.4496 0.96404 -0.96404 l0 -14.865 c0 -0.5144 -0.38602 -0.96404 -0.96404 -0.96404 l-1.036 0 c-0.18641 0 -0.31602 -0.12961 -0.31602 -0.30762 c0 -0.18641 0.12961 -0.31602 0.31602 -0.31602 l5.12 0 l0 5.9168 c1.068 -4.4752 3.7568 -6.158 5.9352 -6.158 z M231.89600000000002 30.5364 c0 0.31039 -0.14809 0.42248 -0.51488 0.42248 l-12.843 0 c0 4.5504 1.8552 8.378 6.2512 8.378 c3.5364 0 5.4576 -2.5888 6.1472 -4.4948 c0.081212 -0.21121 0.19442 -0.26762 0.31562 -0.26762 c0.22641 0 0.3148 0.16961 0.2832 0.36281 c-0.31719 1.2304 -2.2412 5.32 -7.19 5.32 c-4.894 0 -9.1656 -2.8884 -9.1656 -9.3296 c0 -5.8964 3.5808 -9.2728 8.5836 -9.2728 c4.7684 0 8.1324 3.1008 8.1324 8.8816 z M218.54640000000003 30.3684 l10.096 -0.00035156 c-0.033203 -5.4964 -1.9792 -8.084 -4.8812 -8.084 c-2.914 0 -5.0704 2.8156 -5.2144 8.0844 z M266.76500000000004 39.3764 c0.18641 0 0.31508 0.12961 0.31508 0.30762 c0 0.18641 -0.12961 0.31602 -0.31602 0.31602 l-7.12 0 c-0.18602 0 -0.31562 -0.12961 -0.31562 -0.31602 c0 -0.17801 0.12961 -0.30762 0.31602 -0.30762 l1.036 0 c0.578 0 0.96404 -0.4496 0.96404 -0.96404 l0 -10.392 c0 -4.0236 -1.9984 -5.192 -3.6784 -5.192 c-3.5684 0 -6.0016 3.8096 -6.0016 8.2676 l0 7.316 c0 0.5144 0.38641 0.96404 0.9644 0.96404 l1.036 0 c0.18641 0 0.31602 0.12961 0.31602 0.30762 c0 0.18641 -0.12961 0.31602 -0.31602 0.31602 l-7.12 0 c-0.18641 0 -0.31602 -0.12961 -0.31602 -0.31602 c0 -0.17801 0.12961 -0.30762 0.31602 -0.30762 l1.036 0 c0.578 0 0.96404 -0.4496 0.96404 -0.96404 l0 -25.985 c0 -0.5144 -0.38602 -0.96404 -0.96404 -0.96404 l-1.036 0 c-0.18641 0 -0.31602 -0.12961 -0.31602 -0.30762 c0 -0.18641 0.12961 -0.31602 0.31602 -0.31602 l5.12 0 l0 16.62 c1.0316 -3.3048 3.5408 -5.7412 7.11 -5.7412 c3.44 0 5.6896 2.0164 5.6896 5.5724 l0 11.121 c0 0.5144 0.38641 0.96404 0.9644 0.96404 l1.036 0 z M272.50660000000005 15.788 c0 -1.0068 0.8288 -1.8356 1.8676 -1.8356 c0.9904 0 1.8196 0.8288 1.8196 1.8356 c0 0.9904 -0.8292 1.8192 -1.8196 1.8192 c-1.0388 0 -1.8676 -0.8288 -1.8676 -1.8192 z M277.9218 39.3764 c0.18641 0 0.31558 0.12969 0.31558 0.3077 c0 0.18641 -0.12961 0.31602 -0.31602 0.31602 l-7.12 0 c-0.18641 0 -0.31602 -0.12961 -0.31602 -0.31602 c0 -0.17801 0.12961 -0.30762 0.31602 -0.30762 l1.036 0 c0.578 0 0.96404 -0.4496 0.96404 -0.96404 l0 -14.865 c0 -0.5144 -0.38602 -0.96404 -0.96404 -0.96404 l-1.036 0 c-0.18641 0 -0.31602 -0.12961 -0.31602 -0.30762 c0 -0.18641 0.12961 -0.31602 0.31602 -0.31602 l5.12 0 l0 16.452 c0 0.5144 0.38641 0.96404 0.9644 0.96404 l1.036 0 z M296.894 21.96 l3.1191 -0.00039062 l0 19.816 c0 6.2412 -3.6884 9.4124 -9.6772 9.4124 c-4.894 0 -7.8664 -2.9612 -7.8664 -5.9004 c0 -1.5504 0.982 -2.258 1.876 -2.258 c0.774 0 1.4912 0.5392 1.4912 1.546 c0 1.342 -1.3916 1.3104 -1.3916 2.5836 c0 1.16 1.934 3.374 5.6816 3.374 c4.662 0 6.7668 -3.5876 6.7668 -7.5488 l0 -8.3684 c-1.1088 3.3544 -3.5128 5.7048 -6.7612 5.7048 c-4.0884 0 -7.8176 -2.9176 -7.8176 -9.3548 c0 -6.084 3.7252 -9.3112 7.818 -9.3112 c3.306 0 5.6852 2.44 6.7612 5.7284 l0 -5.4236 z M291.019 39.40084 c3.0704 0 5.8992 -3.8168 5.8992 -8.3932 c0 -4.6112 -2.862 -8.4332 -5.8992 -8.4332 c-3.1132 0 -5.3544 2.5188 -5.3544 8.4016 c0 5.906 2.2412 8.4248 5.3544 8.4248 z M320.771 21.96 l3.1191 -0.00039062 l0 19.816 c0 6.2412 -3.6884 9.4124 -9.6772 9.4124 c-4.894 0 -7.8664 -2.9612 -7.8664 -5.9004 c0 -1.5504 0.982 -2.258 1.876 -2.258 c0.774 0 1.4912 0.5392 1.4912 1.546 c0 1.342 -1.3916 1.3104 -1.3916 2.5836 c0 1.16 1.934 3.374 5.6816 3.374 c4.662 0 6.7668 -3.5876 6.7668 -7.5488 l0 -8.3684 c-1.1088 3.3544 -3.5128 5.7048 -6.7612 5.7048 c-4.0884 0 -7.8176 -2.9176 -7.8176 -9.3548 c0 -6.084 3.7252 -9.3112 7.818 -9.3112 c3.306 0 5.6852 2.44 6.7612 5.7284 l0 -5.4236 z M314.896 39.40084 c3.0704 0 5.8992 -3.8168 5.8992 -8.3932 c0 -4.6112 -2.862 -8.4332 -5.8992 -8.4332 c-3.1132 0 -5.3544 2.5188 -5.3544 8.4016 c0 5.906 2.2412 8.4248 5.3544 8.4248 z M349.702 39.3764 c0.18641 0 0.31594 0.12953 0.31594 0.30754 c0 0.18641 -0.12961 0.31602 -0.31602 0.31602 l-5.12 0 l0 -5.3836 c-1.1092 3.3544 -3.5132 5.7048 -6.7616 5.7048 c-4.0884 0 -7.8176 -2.9176 -7.8176 -9.3548 c0 -6.084 3.7252 -9.3112 7.818 -9.3112 c3.306 0 5.6852 2.44 6.7612 5.7284 l0 -5.4236 l3.12 0 l0 16.452 c0 0.5144 0.38602 0.96404 0.96404 0.96404 l1.036 0 z M338.708 39.40112 c3.0704 0 5.8992 -3.8168 5.8992 -8.3932 c0 -4.6112 -2.862 -8.4332 -5.8992 -8.4332 c-3.1132 0 -5.3548 2.5188 -5.3548 8.4016 c0 5.906 2.2416 8.4248 5.3548 8.4248 z M355.4546 15.788 c0 -1.0068 0.8288 -1.8356 1.8676 -1.8356 c0.9904 0 1.8196 0.8288 1.8196 1.8356 c0 0.9904 -0.8292 1.8192 -1.8196 1.8192 c-1.0388 0 -1.8676 -0.8288 -1.8676 -1.8192 z M360.8698 39.3764 c0.18641 0 0.31558 0.12969 0.31558 0.3077 c0 0.18641 -0.12961 0.31602 -0.31602 0.31602 l-7.12 0 c-0.18641 0 -0.31602 -0.12961 -0.31602 -0.31602 c0 -0.17801 0.12961 -0.30762 0.31602 -0.30762 l1.036 0 c0.578 0 0.96404 -0.4496 0.96404 -0.96404 l0 -14.865 c0 -0.5144 -0.38602 -0.96404 -0.96404 -0.96404 l-1.036 0 c-0.18641 0 -0.31602 -0.12961 -0.31602 -0.30762 c0 -0.18641 0.12961 -0.31602 0.31602 -0.31602 l5.12 0 l0 16.452 c0 0.5144 0.38641 0.96404 0.9644 0.96404 l1.036 0 z M373.962 40.25801 c-4.9268 0 -8.7656 -3.326 -8.7656 -9.33 c0 -5.7888 3.7312 -9.2728 8.7656 -9.2728 c4.8524 0 8.7572 3.1532 8.7572 9.2732 c0 6.004 -3.7808 9.3296 -8.7572 9.3296 z M373.94 39.62719 c3.1116 -0.031602 5.4456 -3.0332 5.4456 -8.6824 c0 -5.7504 -2.3684 -8.6512 -5.4236 -8.6512 c-3.0388 0 -5.432 2.9008 -5.432 8.6512 c0 5.4288 2.2564 8.6508 5.41 8.6824 z M407.264 39.3764 c0.18641 0 0.31508 0.12961 0.31508 0.30762 c0 0.18641 -0.12961 0.31602 -0.31602 0.31602 l-7.12 0 c-0.18602 0 -0.31562 -0.12961 -0.31562 -0.31602 c0 -0.17801 0.12961 -0.30762 0.31602 -0.30762 l1.036 0 c0.578 0 0.96404 -0.4496 0.96404 -0.96404 l0 -10.392 c0 -4.0236 -1.9984 -5.192 -3.6784 -5.192 c-3.5684 0 -6.0016 3.8096 -6.0016 8.2676 l0 7.316 c0 0.5144 0.38641 0.96404 0.9644 0.96404 l1.036 0 c0.18641 0 0.31602 0.12961 0.31602 0.30762 c0 0.18641 -0.12961 0.31602 -0.31602 0.31602 l-7.12 0 c-0.18641 0 -0.31602 -0.12961 -0.31602 -0.31602 c0 -0.17801 0.12961 -0.30762 0.31602 -0.30762 l1.036 0 c0.578 0 0.96404 -0.4496 0.96404 -0.96404 l0 -14.865 c0 -0.5144 -0.38602 -0.96404 -0.96404 -0.96404 l-1.036 0 c-0.18641 0 -0.31602 -0.12961 -0.31602 -0.30762 c0 -0.18641 0.12961 -0.31602 0.31602 -0.31602 l5.12 0 l0 5.5 c1.0316 -3.3048 3.5408 -5.7412 7.11 -5.7412 c3.44 0 5.6896 2.0164 5.6896 5.5724 l0 11.121 c0 0.5144 0.38641 0.96404 0.9644 0.96404 l1.036 0 z"></path></g><g id="SvgjsG2255" featureKey="sloganFeature-0" transform="matrix(0.6231627538578579,0,0,0.6231627538578579,135.81305120355736,145.26102347685287)" fill="url(#SvgjsLinearGradient2267)"><path d="M3 16.4 l-1.2 3.6 l-1.5 0 l0 -0.6 l4.9 -13.4 l1.7 0 l4.9 13.4 l0 0.6 l-1.5 0 l-1.2 -3.6 l-6.1 0 z M8.6 15.1 l-2.5 -7.3 l-0.1 0 l-2.5 7.3 l5.1 0 z M21.4825 20 l-1.5 0 l0 -14 l6.2 0 c2.1 0 3.5 1.4 3.5 3.3 l0 2.7 c0 1.9 -1.4 3.3 -3.5 3.3 l-4.7 0 l0 4.7 z M26.1825 7.300000000000001 l-4.7 0 l0 6.7 l4.7 0 c1.1 0 2 -0.9 2 -2 l0 -2.7 c0 -1.1 -0.9 -2 -2 -2 z M40.065000000000005 20 l-1.5 0 l0 -14 l6.2 0 c2.1 0 3.5 1.4 3.5 3.3 l0 2.7 c0 1.9 -1.4 3.3 -3.5 3.3 l-4.7 0 l0 4.7 z M44.765 7.300000000000001 l-4.7 0 l0 6.7 l4.7 0 c1.1 0 2 -0.9 2 -2 l0 -2.7 c0 -1.1 -0.9 -2 -2 -2 z M58.64750000000001 20 l-1.5 0 l0 -14 l9.1 0 l0 0.9 l-0.4 0.4 l-7.2 0 l0 5.6 l5.6 0 l0 1.3 l-5.6 0 l0 5.8 z M74.53000000000002 16.4 l-1.2 3.6 l-1.5 0 l0 -0.6 l4.9 -13.4 l1.7 0 l4.9 13.4 l0 0.6 l-1.5 0 l-1.2 -3.6 l-6.1 0 z M80.13000000000001 15.1 l-2.5 -7.3 l-0.1 0 l-2.5 7.3 l5.1 0 z M93.01250000000002 20 l-1.5 0 l0 -14 l6.2 0 c2.1 0 3.5 1.4 3.5 3.3 l0 1.9 c0 2.8 -2.7 3.2 -2.7 3.2 l3.1 5 l0 0.6 l-1.5 0 l-3.1 -5.5 l-4 0 l0 5.5 z M97.71250000000002 7.300000000000001 l-4.7 0 l0 5.9 l4.7 0 c1.1 0 2 -0.9 2 -2 l0 -1.9 c0 -1.1 -0.9 -2 -2 -2 z M118.29500000000002 18.1 l-1.5 0 l-4.1 -9.8 l-0.1 0 l-1.4 11.7 l-1.5 0 l0 -0.6 l1.8 -13.4 l1.8 0 l4.2 10.1 l0.1 0 l4.2 -10.1 l1.8 0 l1.8 13.4 l0 0.6 l-1.5 0 l-1.4 -11.7 l-0.1 0 z"></path></g>
			</g>
		</svg>
	