<?xml version="1.0" encoding="utf-8"?>
<!-- Generator: Adobe Illustrator 23.0.3, SVG Export Plug-In . SVG Version: 6.00 Build 0)  -->
<svg version="1.1" id="Layer_1" xmlns="http://www.w3.org/2000/svg" xmlns:xlink="http://www.w3.org/1999/xlink" x="0px" y="0px"
	 viewBox="0 0 1243.7 377.1" style="enable-background:new 0 0 1243.7 377.1;" xml:space="preserve">
<style type="text/css">
	.st0{display:none;}
	.st1{display:inline;}
	.st2{enable-background:new    ;}
	.st3{fill:#367125;}
	.st4{fill:#184E25;}
	.st5{fill:#144A23;}
	.st6{fill:#4A8B31;}
	.st7{fill:none;stroke:#000000;stroke-width:2;stroke-miterlimit:10;}
	.st8{fill:#FFFFFF;}
</style>
<g class="st0">
	<g class="st1">
		<g class="st2">
			<g>
				<polygon class="st3" points="-59.2,139.6 -145.3,86.6 1295.2,86.6 1209,139.6 				"/>
			</g>
			<g>
				<polygon class="st4" points="1453.6,280.4 -303.8,280.4 -145.3,86.6 1295.2,86.6 				"/>
			</g>
			<g>
				<polygon class="st5" points="-178.9,315.9 -303.8,280.4 1453.6,280.4 1328.7,315.9 				"/>
			</g>
			<g>
				<path class="st6" d="M-311.6,284.6l164.9-200.7h1443.2l164.9,200.7H-311.6z M1295.2,86.6H-145.3l-158.5,193.8h1757.4
					L1295.2,86.6"/>
			</g>
			<g>
				<polygon class="st3" points="-185.1,319.5 -311.6,284.6 1461.4,284.6 1335,319.5 				"/>
			</g>
		</g>
	</g>
</g>
<path class="st7" d="M900.9,123.5"/>
<g>
	
		<image style="overflow:visible;opacity:0.5;" width="5182" height="1487" xlink:href="DF75B2CEE85B1AD4.png"  transform="matrix(0.24 0 0 0.24 0 20.2478)">
	</image>
	<g>
		<path class="st8" d="M1151.7,240.5c0.1,1.4-1.1,2.4-2.5,2.4H1097c-1.3,0-2.5-1.1-2.4-2.4c0.1-1.2,0.9-2.1,2.3-2.1h7.7
			c4.3,0,7.2-3.3,7.2-7.2v-76.8c0-29.7-14.7-38.3-27.1-38.3c-26.4,0-44.3,28.2-44.3,61.1v54c0,3.8,2.8,7.2,7.2,7.2h7.7
			c1.3,0,2.2,0.8,2.3,2.1c0.1,1.3-1.1,2.4-2.4,2.4h-52.3c-1.3,0-2.5-1.1-2.4-2.4c0.1-1.2,0.9-2.1,2.3-2.1h7.7c4.3,0,7.2-3.4,7.2-7.2
			V121.4c0-3.8-2.8-7.2-7.2-7.2h-7.7c-1.4,0-2.3-0.9-2.3-2.2c-0.3-1.4,0.7-2.3,2.1-2.3h37.8c0,0,0,0,0,0V150c0,0.1,0.1,0.1,0.1,0
			c7.8-24.3,26.2-42.1,52.4-42.1c25.4,0,42.1,14.9,42.1,41.2v82.1c0,3.8,2.8,7.2,7.2,7.2h7.7
			C1150.8,238.4,1151.7,239.2,1151.7,240.5z M753.7,240.9c0.1,1.4-1.1,2.5-2.5,2.5h-37.6c0,0,0,0,0,0V204c0-0.1-0.1-0.1-0.1,0
			c-8.2,24.7-25.9,41.8-49.9,41.8c-30.2,0-57.7-21.5-57.7-69.1c0-44.9,27.5-68.8,57.7-68.8c24.3,0,41.9,17.9,49.8,42
			c0,0,0.1,0,0.1,0v-39.8c0,0,0,0,0,0h22.9c0,0,0,0,0,0v121.5c0.1,3.9,2.9,7.2,7.2,7.2h7.7C752.7,238.9,753.6,239.7,753.7,240.9z
			 M713.7,177.1c0-34-21.1-62.3-43.6-62.3c-23,0-39.6,18.6-39.6,62c0,43.6,16.6,62.2,39.6,62.2C692.7,239.1,713.7,210.9,713.7,177.1
			z M985.6,176c0,44.4-27.9,68.9-64.7,68.9c-36.4,0-64.7-24.6-64.7-68.9c0-42.7,27.6-68.5,64.7-68.5
			C956.8,107.5,985.6,130.7,985.6,176z M961,176.2c0-42.5-17.5-63.9-40.1-63.9c-22.4,0-40.2,21.5-40.2,63.9
			c0,40.1,16.6,63.9,40,64.1C943.8,240,961,217.9,961,176.2z M245.2,122c0-3.8,2.9-7.2,7.2-7.2h-0.1c1.3,0,2.2-0.8,2.3-2.1
			c0.1-1.3-1.1-2.4-2.4-2.4h-38.5c-1.3,0-2.5,1.1-2.4,2.4c0.1,1.2,0.9,2.1,2.3,2.1h1.7c4.3,0,7.2,3.4,7.2,7.2v109.8
			c0,3.9-2.8,7.2-7.2,7.2h-0.3c-1.3,0-2.2,0.8-2.3,2.1c-0.1,1.3,1.1,2.4,2.4,2.4h37.3c1.3,0,2.5-1.1,2.4-2.4
			c-0.1-1.2-0.9-2.1-2.3-2.1h0c-4.3,0-7.2-3.4-7.2-7.2L245.2,122z M132.7,58.3l-0.3,84.2c0,0,0,0,0,0l-77.8,0c0,0,0,0,0,0L54.3,30.3
			c0,0,0,0-0.1,0l-41.6,0c-1.5,0-2.8,1.1-2.7,2.4c0.1,1.2,1,2,2.5,2H21c4.7,0,7.9,3.4,7.9,7.1v190c0,3.8-3.1,7.1-7.9,7.1l-2.8,0.1
			c-1.5,0-2.5,0.8-2.6,2c-0.1,1.4,1.2,2.5,2.7,2.5h44.4c1.5,0,2.8-1.1,2.7-2.4c-0.1-1.2-1-2-2.5-2L62,239c-4.7,0-7.9-3.4-7.9-7.1
			l0.3-41.6c0-32.6,0.2-28.8,39.5-28.8l38.8,0c0,0,0,4.7,0,4.7l0.3,65.8c0,3.9-3.1,7.1-7.9,7.1l-0.1,0c-1.5,0-2.5,0.8-2.5,2
			c-0.1,1.3,1.2,2.4,2.7,2.4h40.8c1.5,0,2.5-0.9,2.5-2.3c0.2-1.4-0.8-2.3-2.3-2.3h0.1c-4.7,0-7.9-3.4-7.9-7.1L158.1,72
			c0-3.8,3.2-7.1,7.9-7.1h0.2c1.5,0,2.5-0.8,2.5-2c0.1-1.3,0.8-2.5-2.7-4.5C162.6,56.2,132.7,58.3,132.7,58.3
			C132.7,58.3,132.7,58.3,132.7,58.3 M316.8,179.4c0,36.8,14.7,60.5,37.3,60.7c4.4,0,8.5-0.9,12.5-2.7c16.1-7.3,25.2-28.4,25.2-58
			c0-19.2-3.8-35.1-10.9-45.6c-6.6-9.8-15.8-15-26.6-15c-10.6,0-19.8,5.2-26.5,15C320.6,144.5,316.8,160.4,316.8,179.4z M310,252.9
			c-0.9,0.9-1.3,1.8-1.3,3.1c0,4.3,11.4,4.6,25.9,5.1c31.8,1.2,80,2.8,80.1,45c0,32.4-18.7,51-51.2,51c-23,0-41.3-4.4-54.5-13.2
			c-11.5-7.6-18.4-18.2-19.8-30.5c0,0,0,0,0,0c-0.6-22.5,9.2-32.4,15.1-38.2c3-3,5-5,4.4-7.2c-1-3.3-3.4-4.5-5.7-5.7
			c-2.6-1.4-5.4-2.8-5.5-7c0-4.2,1.5-7.5,4.4-10c6.1-5.3,16.8-5.2,22.1-4.9c0,0,0.1-0.1,0-0.1c-21.3-10.7-33.4-32.8-33.4-61
			c0-20.2,6.3-37.3,18.2-49.5c11.5-11.7,27.4-17.9,45.7-17.9c18.2,0,33.8,5.9,45.2,17c12.2,11.9,18.6,29.3,18.6,50.4
			c0,1.5,0,3.1,0,4.5c0.2,18.3,0.6,41-28.9,57c-16.7,9.1-37.8,9-54.7,8.9C322.7,249.7,313.3,249.6,310,252.9z M308.9,310.3
			c0,20.1,17.4,32.9,45.5,33.3c28.1,0.4,45.8-11.9,46.1-32c0.2-20.1-17.2-32.9-45.4-33.3C327.5,278,309.3,290.5,308.9,310.3z
			 M466.7,252.9c-0.9,0.9-1.3,1.8-1.3,3.1c0,4.3,11.4,4.6,25.9,5.1c31.8,1.2,80,2.8,80.1,45c0,32.4-18.7,51-51.2,51
			c-23,0-41.3-4.4-54.5-13.2c-11.5-7.6-18.4-18.2-19.8-30.5c0,0,0,0,0,0c-0.6-22.5,9.2-32.4,15.1-38.2c3-3,5-5,4.4-7.2
			c-1-3.3-3.4-4.5-5.7-5.7c-2.6-1.4-5.4-2.8-5.5-7c0-4.2,1.5-7.5,4.4-10c6.1-5.3,16.8-5.2,22.1-4.9c0,0,0.1-0.1,0-0.1
			c-21.3-10.7-33.4-32.8-33.4-61c0-20.2,6.3-37.3,18.2-49.5c11.5-11.7,27.4-17.9,45.7-17.9c18.2,0,33.8,5.9,45.2,17
			c12.2,11.9,18.6,29.3,18.6,50.4c0,1.5,0,3.1,0,4.5c0.2,18.3,0.6,41-28.9,57c-16.7,9.1-37.8,9-54.7,8.9
			C479.3,249.7,469.9,249.6,466.7,252.9z M465.5,310.3c0,20.1,17.4,32.9,45.5,33.3c28.1,0.4,45.8-11.9,46.1-32
			c0.2-20.1-17.2-32.9-45.4-33.3C484.1,278,465.9,290.5,465.5,310.3z M473.4,179.4c0,36.8,14.7,60.5,37.3,60.7
			c4.4,0,8.5-0.9,12.5-2.7c16.1-7.3,25.2-28.4,25.2-58c0-19.2-3.8-35.1-10.9-45.6c-6.6-9.8-15.8-15-26.6-15
			c-10.6,0-19.8,5.2-26.5,15C477.2,144.5,473.4,160.4,473.4,179.4z M1208.9,122.7c-8.1,0-14.6,6.6-14.6,14.7s6.6,14.7,14.7,14.7
			c8.1,0,14.6-6.6,14.6-14.7S1217,122.7,1208.9,122.7z M1208.9,198.6c-8.1,0-14.6,6.6-14.6,14.7s6.6,14.7,14.7,14.7
			c17.5,0-9.6,31.7-5.5,31.7c4.6-0.1,20.1-27.8,20.1-46.4C1223.6,205.2,1217,198.6,1208.9,198.6z M818.9,122c0-3.8,2.9-7.2,7.2-7.2
			h-0.3c1.3,0,2.2-0.8,2.3-2.1c0.1-1.3-1.1-2.4-2.4-2.4h-37.2c-1.3,0-2.5,1.1-2.4,2.4c0.1,1.2,0.9,2.1,2.3,2.1h0.6
			c4.3,0,7.2,3.4,7.2,7.2v109.8c0,3.9-2.8,7.2-7.2,7.2h0c-1.3,0-2.2,0.8-2.3,2.1c-0.1,1.3,1.1,2.4,2.4,2.4h37.3
			c1.3,0,2.5-1.1,2.4-2.4c-0.1-1.2-0.9-2.1-2.3-2.1h-0.3c-4.3,0-7.2-3.4-7.2-7.2L818.9,122z"/>
	</g>
</g>
</svg>
