<?xml version="1.0" encoding="utf-8"?>
<!-- Generator: Adobe Illustrator 23.0.3, SVG Export Plug-In . SVG Version: 6.00 Build 0)  -->
<svg version="1.1" id="Layer_1" xmlns="http://www.w3.org/2000/svg" xmlns:xlink="http://www.w3.org/1999/xlink" x="0px" y="0px"
	 viewBox="0 0 3171.4 1523.4" style="enable-background:new 0 0 3171.4 1523.4;" xml:space="preserve">
<style type="text/css">
	.st0{fill:#009F4C;}
	.st1{fill:none;}
	.st2{fill:none;stroke:#000000;stroke-miterlimit:10;}
</style>
<g id="SvgjsG2254" transform="matrix(0.8617967675106947,0,0,0.8617967675106947,-1.2503653814507203,94.65874013564012)">
	<g id="XMLID_1_">
		<g>
			<path class="st0" d="M2322.1,1033.3h43.9v47.1c8.9-28.3,30.4-49.2,60.9-49.2c29.5,0,48.8,17.3,48.8,47.8v95.3
				c0,4.4,3.3,8.3,8.3,8.3h8.9c1.6,0,2.7,1.1,2.7,2.6c0,1.6-1.1,2.7-2.7,2.7h-61c-1.6,0-2.7-1.1-2.7-2.7c0-1.5,1.1-2.6,2.7-2.6h8.9
				c5,0,8.3-3.8,8.3-8.3v-89.1c0-34.5-17.1-44.5-31.5-44.5c-30.6,0-51.4,32.7-51.4,70.9v62.7c0,4.4,3.3,8.3,8.3,8.3h8.9
				c1.6,0,2.7,1.1,2.7,2.6c0,1.6-1.1,2.7-2.7,2.7h-61c-1.6,0-2.7-1.1-2.7-2.7c0-1.5,1.1-2.6,2.7-2.6h8.9c5,0,8.3-3.9,8.3-8.3v-127.4
				c0-4.4-3.3-8.3-8.3-8.3h-8.9c-1.6,0-2.7-1.1-2.7-2.6C2319.4,1034.4,2320.5,1033.3,2322.1,1033.3z"/>
			<path class="st0" d="M1925.6,1182.8c26.3,0,50.6-32.7,50.6-71.9c0-39.5-24.5-72.3-50.6-72.3c-26.7,0-45.9,21.6-45.9,72
				C1879.7,1161.2,1899,1182.8,1925.6,1182.8z M2011,1182.6h8.9c1.6,0,2.7,1.1,2.7,2.6c0,1.6-1.1,2.7-2.7,2.7H1976v-46.1
				c-9.5,28.8-30.1,48.9-58,48.9c-35,0-67-25-67-80.2c0-52.1,31.9-79.8,67-79.8c28.3,0,48.7,20.9,57.9,49.1v-46.5h26.7v141
				C2002.7,1178.8,2006,1182.6,2011,1182.6z"/>
			<path class="st0" d="M2181.2,1110.4c0,46.5,19.3,74.1,46.4,74.4c26.7-0.3,46.7-26,46.7-74.4c0-49.3-20.3-74.2-46.5-74.2
				C2201.8,1036.2,2181.2,1061.1,2181.2,1110.4z M2227.8,1190.2c-42.2,0-75.1-28.5-75.1-80c0-49.6,32-79.5,75.1-79.5
				c41.6,0,75.1,27,75.1,79.5C2302.9,1161.7,2270.5,1190.2,2227.8,1190.2z"/>
			<path class="st0" d="M2063.4,1038.7h-8.9c-1.6,0-2.7-1.1-2.7-2.6c0-1.6,1.1-2.7,2.7-2.7h43.9v141c0,4.4,3.3,8.3,8.3,8.3h8.9
				c1.6,0,2.7,1.1,2.7,2.6c0,1.6-1.1,2.7-2.7,2.7h-61c-1.6,0-2.7-1.1-2.7-2.7c0-1.5,1.1-2.6,2.7-2.6h8.9c5,0,8.3-3.8,8.3-8.3V1047
				C2071.7,1042.5,2068.4,1038.7,2063.4,1038.7z"/>
			<path class="st0" d="M1474.1,1182.6c1.6,0,2.7,1.1,2.7,2.6c0,1.6-1.1,2.7-2.7,2.7h-61c-1.6,0-2.7-1.1-2.7-2.7
				c0-1.5,1.1-2.6,2.7-2.6h8.9c5,0,8.3-3.8,8.3-8.3v-127.4c0-4.4-3.3-8.3-8.3-8.3h-8.9c-1.6,0-2.7-1.1-2.7-2.6
				c0-1.6,1.1-2.7,2.7-2.7h43.9v141c0,4.4,3.3,8.3,8.3,8.3H1474.1z"/>
			<path class="st0" d="M1443.7,964.7c8.5,0,15.6,7.1,15.6,15.7c0,8.5-7.1,15.6-15.6,15.6c-8.9,0-16-7.1-16-15.6
				C1427.7,971.8,1434.8,964.7,1443.7,964.7z"/>
			<path class="st0" d="M1378.5,1182.6c1.6,0,2.7,1.1,2.7,2.6c0,1.6-1.1,2.7-2.7,2.7h-61c-1.6,0-2.7-1.1-2.7-2.7
				c0-1.5,1.1-2.6,2.7-2.6h8.9c5,0,8.3-3.8,8.3-8.3l-0.6-96.5c0,0-26.5,0-40.9,0c-30.6,0-41.5-4.4-41.5,33.8v62.7
				c0,4.4,3.3,8.3,8.3,8.3h8.9c1.6,0,2.7,1.1,2.7,2.6c0,1.6-1.1,2.7-2.7,2.7h-61c-1.6,0-2.7-1.1-2.7-2.7c0-1.5,1.1-2.6,2.7-2.6h8.9
				c5,0,8.3-3.9,8.3-8.3V951.6c0-4.4-3.3-8.3-8.3-8.3h-8.9c-1.6,0-2.7-1.1-2.7-2.6c0-1.6,1.1-2.7,2.7-2.7h43.9v117.8h82L1333,938
				h28.3v236.3c0,4.4,3.3,8.3,8.3,8.3L1378.5,1182.6L1378.5,1182.6z"/>
		</g>
	</g>
</g>
<g>
	<rect x="1542.4" y="418.7" class="st1" width="195.5" height="157.9"/>
	<polygon class="st1" points="1738,591.6 1543.1,591.6 1542.4,591.6 1542.4,602.9 1738,602.9 	"/>
	<path class="st1" d="M1784.3,932.2c-9.3,0-16.9,7.6-16.9,16.9c0,9.3,7.6,16.9,16.9,16.9s16.9-7.6,16.9-16.9
		C1801.2,939.8,1793.7,932.2,1784.3,932.2z"/>
	<path class="st0" d="M1794,244.5h-541.1l-10,9.4v544.5l10.7,11.2H1869v0.1l8.1-11.2V283.3l-8.1-7.5h-582.8l-10.7,7.5v485l10.7,11.2
		h552.7l8.1-11.2V317.2l-8.1-7.5H1320l-10.7,7.5v417.4l10.7,11.3h485.1l8.1-11.3v-388l-8.1-7.5h-451.7l-10.7,7.5v357.9l10.7,11.2
		h89.7l6.8-3.6l88.7-94.1h4.5h197.2h12.7v-16.8v-9.5v-15.8V418.3v-0.9v-10h-12.7h-197.2h-15.7v10v0.9v157.5v15.8v9.5v1.8l-88.4,94
		h-77.6v-339h432.9V727h-466.2V328.4h500.1v432.4h-533.9V294.6h564v496.3h-596.6V263.4H1800 M1542.5,418.7H1738v157.9h-195.5V418.7
		L1542.5,418.7L1542.5,418.7z M1542.5,591.6h0.6H1738v11.3h-195.5V591.6L1542.5,591.6L1542.5,591.6z"/>
	<path class="st0" d="M1702.4,1053 M1793.4,923.2c-13.6,0-24.7,11.1-24.7,24.7s11.1,24.7,24.7,24.7 M1793.4,930.9
		c9.3,0,16.9,7.6,16.9,16.9s-7.6,16.9-16.9,16.9s-16.9-7.6-16.9-16.9S1784.1,930.9,1793.4,930.9z"/>
	<line class="st1" x1="1364.6" y1="1437.6" x2="1364.6" y2="1437.6"/>
</g>
<g>
	<polygon class="st2" points="1282.5,1171.7 1282.5,1171.7 1282.5,1171.7 	"/>
	<path class="st2" d="M1304.6,1135.8c0-14.9,50.7,1.7,83.5-16.1s29.6-44.2,29.6-63.1v-0.1c0-21.6-6.6-39.5-19.1-51.7
		c-11.7-11.5-27.7-17.5-46.3-17.5c-18.8,0-35.1,6.4-46.9,18.4c-12.2,12.4-18.7,30-18.7,50.8c0,30.4,13.5,53.6,37.1,64
		c0,0-29.9-4.4-29.9,14.5c0.2,7.8,9.4,5.5,11.6,13c2.2,7.4-21,12-20.1,47c2.8,23.3,25.8,44.8,76.4,44.8c32.7,0,52.4-18.6,52.4-52.2
		C1414.1,1123.7,1304.6,1150.7,1304.6,1135.8z M1312.9,1056.6c0-19.9,4-36.3,11.5-47.5c7-10.3,16.6-15.7,27.8-15.7
		c11.3,0,21,5.4,27.9,15.7c7.5,11.1,11.4,27.5,11.4,47.5c0,30.8-9.6,52.9-26.4,60.5c-4.2,1.9-8.6,2.8-13.1,2.8
		C1328.3,1119.7,1312.9,1094.9,1312.9,1056.6z M1352.2,1226.8c-31.2-0.4-47.5-15.3-47.5-34.9c0.4-19.9,18.4-33.9,48.3-33.6
		c31.7,0.4,47.6,15.7,47.4,34.9C1400.1,1212.5,1383.9,1227.2,1352.2,1226.8z"/>
</g>
<g>
	<polygon class="st2" points="1440,1171.7 1440,1171.7 1440,1171.7 	"/>
	<path class="st2" d="M1462.1,1135.8c0-14.9,50.7,1.7,83.5-16.1s29.6-44.2,29.6-63.1v-0.1c0-21.6-6.6-39.5-19.1-51.7
		c-11.7-11.5-27.7-17.5-46.3-17.5c-18.8,0-35.1,6.4-46.9,18.4c-12.2,12.4-18.7,30-18.7,50.8c0,30.4,13.5,53.6,37.1,64
		c0,0-29.9-4.4-29.9,14.5c0.2,7.8,9.4,5.5,11.6,13c2.2,7.4-21,12-20.1,47c2.8,23.3,25.8,44.8,76.4,44.8c32.7,0,52.4-18.6,52.4-52.2
		C1571.6,1123.7,1462.1,1150.7,1462.1,1135.8z M1470.4,1056.6c0-19.9,4-36.3,11.5-47.5c7-10.3,16.6-15.7,27.8-15.7
		c11.3,0,21,5.4,27.9,15.7c7.5,11.1,11.4,27.5,11.4,47.5c0,30.8-9.6,52.9-26.4,60.5c-4.2,1.9-8.6,2.8-13.1,2.8
		C1485.8,1119.7,1470.4,1094.9,1470.4,1056.6z M1509.7,1226.8c-31.2-0.4-47.5-15.3-47.5-34.9c0.4-19.9,18.4-33.9,48.3-33.6
		c31.7,0.4,47.6,15.7,47.4,34.9C1557.6,1212.5,1541.4,1227.2,1509.7,1226.8z"/>
</g>
</svg>
